<svg xmlns="http://www.w3.org/2000/svg" xmlns:xlink="http://www.w3.org/1999/xlink" version="1.1" style="" xml:space="preserve" width="512" height="512"><rect id="backgroundrect" width="100%" height="100%" x="0" y="0" fill="none" stroke="none"/>
















<g class="currentLayer" style=""><title>Layer 1</title><g id="svg_1" class="selected" fill="#ffffff" fill-opacity="1" filter="" stroke="#000000" stroke-opacity="1" opacity="1">
	<path d="M256,391c74.443,0,135-60.557,135-135s-60.557-135-135-135s-135,60.557-135,135S181.557,391,256,391z M181,166h30v75h90   v-75h30v180h-30v-75h-90v75h-30V166z" id="svg_2" fill="#ffffff" fill-opacity="1" filter="" stroke="#000000" stroke-opacity="1" opacity="1"/>
	<path d="M0,512h512V0H0V512z M451,451h-90v-30h60v-60h30V451z M361,61h90v90h-30V91h-60V61z M421,256c0,90.981-74.019,165-165,165   S91,346.981,91,256S165.019,91,256,91S421,165.019,421,256z M61,61h90v30H91v60H61V61z M61,361h30v60h60v30H61V361z" id="svg_3" fill="#ffffff" fill-opacity="1" filter="" stroke="#000000" stroke-opacity="1" opacity="1"/>
</g></g><defs><filter id="f094" inkscape:label="Glow" xmlns:inkscape="http://www.inkscape.org/namespaces/inkscape" inkscape:menu="Shadows and Glows" inkscape:menu-tooltip="Glow of object's own color at the edges" color-interpolation-filters="sRGB">
            <feGaussianBlur stdDeviation="5" result="result91"/>
            <feComposite in="SourceGraphic" operator="over" in2="result91"/>
        </filter></defs></svg>